<svg xmlns="http://www.w3.org/2000/svg" xmlns:xlink="http://www.w3.org/1999/xlink" xmlns:svgjs="http://svgjs.com/svgjs" version="1.1" width="512" height="512" x="0" y="0" viewBox="0 0 100 100" style="enable-background:new 0 0 512 512" xml:space="preserve" class=""><g><path fill="#ffffff" d="M50 10.033c-22.091 0-40 16.6-40 37.077 0 11.665 5.812 22.069 14.897 28.865l.162 13.073a.928.928 0 0 0 1.387.795l12.492-7.094a42.983 42.983 0 0 0 11.063 1.437c22.091 0 40-16.6 40-37.077S72.091 10.033 50 10.033zm3.037 49.028-8.55-8.899a1.61 1.61 0 0 0-1.925-.303l-15.003 8.079c-.571.307-1.132-.424-.687-.896L44.6 38.249a1.287 1.287 0 0 1 1.874.001l8.547 9.07a1.608 1.608 0 0 0 1.943.31l14.743-8.027c.571-.31 1.135.422.689.895L54.903 59.052a1.29 1.29 0 0 1-1.866.009z" data-original="#0081fd" opacity="1" class=""/></g></svg>