<svg width="48" height="50" viewBox="0 0 48 50" fill="none" xmlns="http://www.w3.org/2000/svg">
<g clip-path="url(#clip0_18_94)">
<path d="M23.9163 6.24814C24.4377 6.24814 24.8604 5.81511 24.8604 5.28096V0.967184C24.8604 0.433029 24.4377 0 23.9163 0C23.3948 0 22.9721 0.433029 22.9721 0.967184V5.28096C22.9722 5.81511 23.3949 6.24814 23.9163 6.24814Z" fill="#1F1F1F"/>
<path d="M46.995 33.2273L45.3271 31.5235C44.7337 30.9164 43.943 30.582 43.1003 30.582C42.5616 30.582 42.0443 30.7194 41.586 30.9766L38.4429 27.7608L38.596 27.6041C39.8711 26.2953 39.8706 24.1686 38.5959 22.8642C38.1404 22.3967 37.572 22.085 36.9524 21.9538C37.0377 21.6522 37.0826 21.3362 37.0826 21.0128C37.0826 20.1144 36.7419 19.272 36.1252 18.6429C35.6696 18.1753 35.1013 17.8636 34.4817 17.7324C34.567 17.4308 34.6119 17.1149 34.6119 16.7915C34.6119 15.8929 34.2712 15.0506 33.6535 14.4205C33.187 13.9432 32.6136 13.6411 32.0114 13.5125C32.3335 12.3747 32.0583 11.0947 31.1845 10.1981C30.4572 9.45619 29.4703 9.13735 28.5192 9.24068L22.2909 8.03302C21.3411 7.84844 20.1548 7.72638 19.4061 8.426C19.3588 8.47018 19.3106 8.52098 19.2632 8.57755C18.1022 8.14404 16.7481 8.40218 15.8183 9.35352C15.2016 9.98458 14.8618 10.8266 14.8618 11.7246C14.8618 12.048 14.9065 12.3639 14.9917 12.6656C14.3728 12.7967 13.8051 13.1081 13.3511 13.574C12.7331 14.2045 12.3923 15.0456 12.3917 15.9425C12.3914 16.2667 12.4363 16.5836 12.522 16.8862C11.9028 17.017 11.3347 17.3277 10.8793 17.7937C10.2613 18.4261 9.92099 19.2686 9.92099 20.1661C9.92099 20.8535 10.1213 21.5084 10.4926 22.0616C10.0238 22.2243 9.59446 22.4953 9.23493 22.8632C7.95899 24.1686 7.95852 26.2954 9.23577 27.6061L9.3883 27.7617L6.24486 30.976C5.07665 30.4125 3.6373 30.6236 2.67327 31.6099L1.00433 33.3147C0.410708 33.9221 0.083895 34.7322 0.0838013 35.5959C0.0838013 36.4597 0.410708 37.2699 1.00433 37.8774L3.08718 40.0084C3.45608 40.3859 4.05393 40.3855 4.42236 40.0076C4.7909 39.6297 4.79052 39.0173 4.42161 38.6399L2.33877 36.5088C2.10233 36.2669 1.97211 35.9427 1.97211 35.596C1.97211 35.2494 2.10233 34.9253 2.33821 34.6839L4.00724 32.979C4.42424 32.5523 5.06249 32.4887 5.54718 32.7856C5.5813 32.8381 5.62077 32.8881 5.66596 32.9344C5.74686 33.0175 5.83921 33.0812 5.93727 33.1278L15.5085 42.918C15.554 43.0195 15.6164 43.1151 15.6979 43.1986C15.7772 43.28 15.8676 43.3429 15.9636 43.3892C16.1661 43.6236 16.2779 43.923 16.2779 44.2425C16.2779 44.5892 16.1477 44.9133 15.9112 45.1552L14.2439 46.8612C13.7512 47.3637 12.9499 47.3636 12.4587 46.8627L10.3759 44.7289C10.0071 44.3512 9.4094 44.3512 9.04068 44.7289C8.67196 45.1066 8.67196 45.7189 9.04068 46.0966L11.125 48.232C11.7385 48.8579 12.5442 49.1707 13.3503 49.1707C14.1565 49.1707 14.9631 48.8574 15.5774 48.231L17.2458 46.5239C17.8394 45.9165 18.1663 45.1063 18.1663 44.2425C18.1663 43.626 17.999 43.0373 17.6878 42.5297L21.2256 38.91C21.2293 38.9061 21.2331 38.9022 21.2369 38.8982C21.642 38.4692 22.7701 38.5495 23.8611 38.6271C24.6362 38.6823 25.5004 38.7437 26.3447 38.644L30.2188 42.6079C29.9678 43.0767 29.8339 43.6058 29.8339 44.1569C29.8339 45.0198 30.1608 45.8295 30.7544 46.4369L32.4229 48.144C33.0161 48.751 33.8069 49.0854 34.6495 49.0854C35.4921 49.0854 36.2828 48.7511 36.8762 48.144L46.9956 37.7902C47.5893 37.1829 47.9162 36.3727 47.9162 35.509C47.9161 34.6453 47.5892 33.8352 46.995 33.2273V33.2273ZM21.9394 9.93358L26.035 10.7277L23.5836 13.238C23.2043 13.0513 22.6846 12.7031 22.1144 12.1443C21.3339 11.3795 20.7756 10.4965 20.7248 9.94568C20.7247 9.9454 20.7247 9.94511 20.7247 9.94482C20.7247 9.94473 20.7246 9.94463 20.7246 9.94453C20.721 9.90497 20.7201 9.87337 20.7205 9.84926C20.844 9.81853 21.1719 9.78444 21.9394 9.93358ZM17.1527 10.7221C17.631 10.2326 18.3741 10.1762 18.9145 10.5511C19.2208 11.8666 20.3163 13.0589 20.8091 13.542C21.1744 13.9 22.3463 14.9734 23.5293 15.2684C23.6893 15.5034 23.7764 15.7836 23.7764 16.0792C23.7764 16.4599 23.6334 16.816 23.3729 17.0825C23.1131 17.3491 22.765 17.4959 22.3926 17.4959C22.0202 17.4959 21.6721 17.3491 21.4111 17.0813L21.411 17.0812L21.4105 17.0807L17.1526 12.7268C16.893 12.4613 16.75 12.1053 16.75 11.7246C16.7501 11.3438 16.8931 10.9878 17.1527 10.7221V10.7221ZM14.6856 14.9427C14.9453 14.6762 15.2931 14.5293 15.6649 14.5293C16.0371 14.5293 16.386 14.6764 16.6475 14.944L20.0761 18.4492C20.616 19.0032 20.616 19.9046 20.078 20.4566C19.8168 20.7231 19.4675 20.8698 19.0944 20.8698C18.7214 20.8698 18.3721 20.7231 18.112 20.4578L18.1119 20.4577L15.5108 17.7937C15.5068 17.7896 15.5024 17.7857 15.4983 17.7815L14.6845 16.9483C14.4234 16.6811 14.2797 16.3244 14.28 15.9439C14.2804 15.5647 14.4236 15.2098 14.6856 14.9427V14.9427ZM12.2137 19.1623C12.4737 18.8964 12.8222 18.7499 13.1951 18.7499C13.565 18.7499 13.9104 18.8943 14.1693 19.1556L16.7783 21.827C17.0385 22.0925 17.1818 22.4481 17.1818 22.8284C17.1818 23.2086 17.0385 23.5642 16.7773 23.8308C16.5174 24.0966 16.1693 24.243 15.7971 24.243C15.4242 24.243 15.075 24.0962 14.8147 23.8308L13.8689 22.863C13.8687 22.8627 13.8684 22.8625 13.8682 22.8623L12.2138 21.1696C11.953 20.9027 11.8094 20.5462 11.8094 20.1659C11.8094 19.7857 11.953 19.4291 12.2137 19.1623V19.1623ZM10.5694 24.2317C10.8305 23.9645 11.1794 23.8174 11.5519 23.8174C11.9242 23.8174 12.2731 23.9644 12.5341 24.2314L13.4812 25.2005C13.7415 25.466 13.8847 25.8216 13.8847 26.2019C13.8847 26.5822 13.7414 26.9377 13.4793 27.2053C13.2195 27.4718 12.8714 27.6186 12.499 27.6186C12.1266 27.6186 11.7785 27.4719 11.5168 27.2034L11.3982 27.0824C11.3966 27.0807 11.3954 27.079 11.3939 27.0775C11.3921 27.0757 11.3902 27.0742 11.3885 27.0725L10.5703 26.2376C10.0304 25.6834 10.0299 24.7836 10.5694 24.2317ZM29.8101 35.2239C29.4415 34.8459 28.8437 34.8456 28.4749 35.223L27.6349 36.0824C26.8367 36.9001 25.3904 36.7971 23.9917 36.6977C22.4729 36.5896 20.9023 36.478 19.886 37.5469L16.4083 41.105L7.71177 32.2095L10.7894 29.0624C11.2981 29.3819 11.8851 29.5531 12.4992 29.5531C13.3766 29.5531 14.1994 29.2047 14.8139 28.574C15.4326 27.9428 15.7733 27.1005 15.7733 26.202C15.7733 26.1936 15.7728 26.1854 15.7728 26.177C15.7809 26.1771 15.7891 26.1776 15.7972 26.1776C16.6734 26.1776 17.4955 25.8302 18.1109 25.2006C18.7296 24.5695 19.0703 23.727 19.0703 22.8286C19.0703 22.8203 19.0698 22.812 19.0698 22.8036C19.078 22.8036 19.0863 22.8042 19.0946 22.8042C19.9705 22.8042 20.7931 22.4572 21.4126 21.8252C22.0557 21.1654 22.3738 20.2966 22.3677 19.4297C22.3761 19.4298 22.3846 19.4303 22.393 19.4303C23.2704 19.4302 24.0931 19.0818 24.7086 18.4502C25.3253 17.8191 25.6651 16.9771 25.6651 16.0792C25.6651 15.4512 25.4984 14.8509 25.1876 14.3308L27.8851 11.5687C28.0861 11.3637 28.334 11.235 28.5937 11.1819C28.6219 11.1788 28.6496 11.1742 28.6771 11.1686C29.0939 11.1097 29.5316 11.2415 29.8504 11.5667C30.3903 12.1207 30.3903 13.0221 29.8523 13.5741L29.0308 14.4123C29.0281 14.415 29.0252 14.4175 29.0225 14.4203L28.0762 15.388C27.7072 15.7654 27.7069 16.3778 28.0754 16.7557C28.444 17.1337 29.0418 17.134 29.4106 16.7566L30.2354 15.9128C30.2356 15.9126 30.2358 15.9124 30.236 15.9122L30.3606 15.785C30.9021 15.2355 31.7792 15.2366 32.32 15.7899C32.5803 16.0553 32.7236 16.411 32.7236 16.7913C32.7236 17.1715 32.5803 17.5271 32.318 17.7947L31.4917 18.6428C31.4916 18.6429 31.4916 18.643 31.4915 18.6431L30.5453 19.6084C30.1759 19.9853 30.1746 20.5978 30.5426 20.9762C30.9106 21.3546 31.5083 21.3558 31.8778 20.9789L32.8282 20.0093C33.088 19.7427 33.4361 19.5959 33.8085 19.5959C34.181 19.5959 34.5291 19.7427 34.7908 20.0112C35.0511 20.2767 35.1943 20.6323 35.1943 21.0127C35.1943 21.3929 35.0511 21.7485 34.7893 22.0155L33.1421 23.7035C32.7735 24.0813 32.7736 24.6936 33.1423 25.0713C33.3267 25.2601 33.5682 25.3544 33.8098 25.3544C34.0515 25.3544 34.2932 25.2599 34.4775 25.071L35.2848 24.2437C35.2894 24.2392 35.2943 24.2353 35.2989 24.2306C35.5587 23.964 35.9068 23.8172 36.2792 23.8172C36.6516 23.8172 36.9997 23.964 37.2605 24.2315C37.7998 24.7834 37.7993 25.6833 37.2605 26.2363L36.4397 27.0761C36.4394 27.0764 36.439 27.0767 36.4387 27.077C36.4385 27.0773 36.4382 27.0777 36.4379 27.0779L35.1351 28.4108C34.7662 28.7884 34.7659 29.4008 35.1343 29.7787C35.3187 29.9678 35.5606 30.0624 35.8024 30.0624C36.0438 30.0624 36.2853 29.9681 36.4696 29.7795L37.1068 29.1276L40.1609 32.2525L31.4651 41.1495L28.3494 37.9617C28.5666 37.8186 28.7745 37.6503 28.9696 37.4505L29.8091 36.5915C30.1782 36.2142 30.1786 35.6018 29.8101 35.2239V35.2239ZM45.6611 36.4216L35.5416 46.7753C35.3049 47.0175 34.9881 47.1509 34.6494 47.1509C34.3108 47.1509 33.9939 47.0175 33.7571 46.7752L32.0886 45.0682C31.8522 44.8264 31.722 44.5027 31.722 44.1569C31.722 43.8112 31.8522 43.4875 32.0886 43.2456L42.2081 32.8919C42.4449 32.6496 42.7617 32.5162 43.1004 32.5162C43.4391 32.5162 43.7559 32.6496 43.9933 32.8925L45.6612 34.5963C45.8976 34.8382 46.0279 35.1622 46.0279 35.5089C46.0278 35.8557 45.8976 36.1798 45.6611 36.4216V36.4216Z" fill="#1F1F1F"/>
<path d="M11.3792 5.43273C11.5635 5.62116 11.8048 5.71527 12.0461 5.71527C12.288 5.71527 12.53 5.62058 12.7144 5.43129C13.0827 5.05319 13.0822 4.44087 12.7131 4.06354L9.27263 0.546198C8.90363 0.16887 8.30579 0.16935 7.93744 0.547542C7.5691 0.925638 7.56966 1.53797 7.93876 1.9153L11.3792 5.43273Z" fill="#1F1F1F"/>
<path d="M35.7864 5.71536C36.0278 5.71536 36.2693 5.62105 36.4536 5.43253L39.8915 1.91509C40.2604 1.53767 40.2607 0.925244 39.8922 0.54734C39.5238 0.169436 38.926 0.169052 38.557 0.546572L35.1192 4.06401C34.7503 4.44143 34.7499 5.05386 35.1184 5.43176C35.3029 5.62086 35.5446 5.71536 35.7864 5.71536Z" fill="#1F1F1F"/>
<path d="M5.88926 41.6035C5.52373 41.9844 5.52879 42.5968 5.9007 42.9712L5.90342 42.9739C6.08689 43.1587 6.32511 43.2507 6.56323 43.2507C6.80764 43.2507 7.05204 43.1538 7.2372 42.9609C7.60273 42.58 7.59626 41.9662 7.22445 41.5918C6.85273 41.2173 6.25498 41.2226 5.88926 41.6035V41.6035Z" fill="#1F1F1F"/>
<path d="M32.1193 33.8306C32.263 33.8306 32.4087 33.7971 32.5454 33.7265C33.011 33.4859 33.198 32.9043 32.9633 32.4274C32.7284 31.9505 32.1606 31.7588 31.6951 31.9993L31.6899 32.002C31.2243 32.2426 31.0399 32.8229 31.2747 33.2998C31.4404 33.6367 31.7738 33.8306 32.1193 33.8306V33.8306Z" fill="#1F1F1F"/>
</g>
<defs>
<clipPath id="clip0_18_94">
<rect width="48" height="49.1707" fill="white"/>
</clipPath>
</defs>
</svg>
